HIERARCHY
ROOT Hips
{
	OFFSET 0.00000 0.00000 0.00000
	CHANNELS 6 Xposition Yposition Zposition Zrotation Yrotation Xrotation 
	JOINT LHipJoint
	{
		OFFSET 0 0 0
		CHANNELS 3 Zrotation Yrotation Xrotation
		JOINT LeftUpLeg
		{
			OFFSET 1.28858 -1.83292 1.03970
			CHANNELS 3 Zrotation Yrotation Xrotation
			JOINT LeftLeg
			{
				OFFSET 2.47846 -6.80952 0.00000
				CHANNELS 3 Zrotation Yrotation Xrotation
				JOINT LeftFoot
				{
					OFFSET 2.75274 -7.56311 0.00000
					CHANNELS 3 Zrotation Yrotation Xrotation
					JOINT LeftToeBase
					{
						OFFSET 0.12848 -0.35301 1.68223
						CHANNELS 3 Zrotation Yrotation Xrotation
						End Site
						{
							OFFSET 0.00000 -0.00000 0.87311
						}
					}
				}
			}
		}
	}
	JOINT RHipJoint
	{
		OFFSET 0 0 0
		CHANNELS 3 Zrotation Yrotation Xrotation
		JOINT RightUpLeg
		{
			OFFSET -1.31183 -1.83292 1.03970
			CHANNELS 3 Zrotation Yrotation Xrotation
			JOINT RightLeg
			{
				OFFSET -2.44740 -6.72417 0.00000
				CHANNELS 3 Zrotation Yrotation Xrotation
				JOINT RightFoot
				{
					OFFSET -2.67343 -7.34519 0.00000
					CHANNELS 3 Zrotation Yrotation Xrotation
					JOINT RightToeBase
					{
						OFFSET -0.16914 -0.46471 1.77626
						CHANNELS 3 Zrotation Yrotation Xrotation
						End Site
						{
							OFFSET -0.00000 -0.00000 0.92777
						}
					}
				}
			}
		}
	}
	JOINT LowerBack
	{
		OFFSET 0 0 0
		CHANNELS 3 Zrotation Yrotation Xrotation
		JOINT Spine
		{
			OFFSET 0.01249 2.14252 0.03842
			CHANNELS 3 Zrotation Yrotation Xrotation
			JOINT Spine1
			{
				OFFSET -0.02957 2.14199 -0.03751
				CHANNELS 3 Zrotation Yrotation Xrotation
				JOINT Neck
				{
					OFFSET 0 0 0
					CHANNELS 3 Zrotation Yrotation Xrotation
					JOINT Neck1
					{
						OFFSET -0.01678 1.65709 -0.05476
						CHANNELS 3 Zrotation Yrotation Xrotation
						JOINT Head
						{
							OFFSET 0.07912 1.58331 -0.11843
							CHANNELS 3 Zrotation Yrotation Xrotation
							End Site
							{
								OFFSET 0.03298 1.73940 -0.04271
							}
						}
					}
				}
				JOINT LeftShoulder
				{
					OFFSET 0 0 0
					CHANNELS 3 Zrotation Yrotation Xrotation
					JOINT LeftArm
					{
						OFFSET 3.39556 1.16496 0.08673
						CHANNELS 3 Zrotation Yrotation Xrotation
						JOINT LeftForeArm
						{
							OFFSET 5.23910 -0.00000 -0.00000
							CHANNELS 3 Zrotation Yrotation Xrotation
							JOINT LeftHand
							{
								OFFSET 3.31467 -0.00000 0.00000
								CHANNELS 3 Zrotation Yrotation Xrotation
								JOINT LeftFingerBase
								{
									OFFSET 0 0 0
									CHANNELS 3 Zrotation Yrotation Xrotation
									JOINT LeftHandIndex1
									{
										OFFSET 0.96590 -0.00000 0.00000
										CHANNELS 3 Zrotation Yrotation Xrotation
										End Site
										{
											OFFSET 0.77873 -0.00000 0.00000
										}
									}
								}
								JOINT LThumb
								{
									OFFSET 0 0 0
									CHANNELS 3 Zrotation Yrotation Xrotation
									End Site
									{
										OFFSET 0.79062 -0.00000 0.79062
									}
								}
							}
						}
					}
				}
				JOINT RightShoulder
				{
					OFFSET 0 0 0
					CHANNELS 3 Zrotation Yrotation Xrotation
					JOINT RightArm
					{
						OFFSET -3.27193 1.31331 0.33940
						CHANNELS 3 Zrotation Yrotation Xrotation
						JOINT RightForeArm
						{
							OFFSET -5.30252 -0.00000 0.00000
							CHANNELS 3 Zrotation Yrotation Xrotation
							JOINT RightHand
							{
								OFFSET -3.67875 -0.00000 0.00000
								CHANNELS 3 Zrotation Yrotation Xrotation
								JOINT RightFingerBase
								{
									OFFSET 0 0 0
									CHANNELS 3 Zrotation Yrotation Xrotation
									JOINT RightHandIndex1
									{
										OFFSET -0.59481 -0.00000 0.00000
										CHANNELS 3 Zrotation Yrotation Xrotation
										End Site
										{
											OFFSET -0.47955 -0.00000 0.00000
										}
									}
								}
								JOINT RThumb
								{
									OFFSET 0 0 0
									CHANNELS 3 Zrotation Yrotation Xrotation
									End Site
									{
										OFFSET -0.48687 -0.00000 0.48687
									}
								}
							}
						}
					}
				}
			}
		}
	}
}
MOTION
Frames: 15
Frame Time: .0083333
5.9734 18.0381 -25.3279 0 0 0 0 0 0 -21 0 0 0 0 0 0 0 0 0 0 0 0 0 0 21 0 0 0 0 0 0 0 0 0 0 0 0 0 0 0 0 0 0 0 0 0 0 -16 0 0 21 0 0 11 0 0 0 -8 0 0 0 0 0 0 0 0 0 0 0 0 0 0 0 0 0 0 0 0 8 0 0 0 0 0 0 0 0 0 0 0 0 0 0 0 0 0
5.9734 18.0381 -25.3279 -70.9952 88.2917 -68.4770 0.0000 0.0000 0.0000 -8.1642 -2.4944 8.1619 0.0015 0.2531 0.6955 1.1841 -4.8336 -19.5346 2.8640 10.4716 30.5178 0.0000 0.0000 0.0000 13.1433 9.8281 9.5786 -0.0034 0.3743 -1.0284 -0.9238 -23.6128 -38.3063 -0.3434 -3.7656 10.4181 -1.4490 -1.5654 -7.5364 0.8820 -1.9991 1.5276 1.4827 -1.0516 5.9066 -13.1791 -16.6748 5.8229 16.7164 -23.9416 6.9699 5.8890 -11.9068 4.7809 0.0000 0.0000 0.0000 -82.2687 1.6217 29.6660 10.9208 -18.1667 -1.7511 -0.0000 0.0000 -5.8649 7.5494 -12.1294 -1.5951 -7.1250 0.0000 -0.0000 -13.6449 17.9414 9.0386 0.0000 0.0000 0.0000 81.5822 -8.9703 29.8573 -14.6949 23.7194 -3.1022 0.0000 -0.0000 -0.0141 -12.6869 -38.9563 8.0560 7.1250 -0.0000 -0.0000 30.5645 -67.2540 -17.0064
5.9504 18.0284 -25.3266 -116.3470 88.7632 -113.8410 0.0000 0.0000 0.0000 -8.5362 -2.4945 7.3870 0.0055 0.4770 1.3107 1.0498 -5.1706 -18.3307 2.8359 10.4245 30.3627 0.0000 0.0000 0.0000 12.7465 10.3292 10.2964 -0.0062 0.5091 -1.3989 -1.7011 -22.6662 -40.9904 -0.7079 -5.3773 14.9880 -2.0337 -1.9662 -7.1170 0.7856 -2.4809 1.4451 1.6635 -1.3053 5.6220 -13.2999 -16.5139 6.5414 17.3893 -23.6658 5.4080 6.2503 -11.8515 4.2487 0.0000 -0.0000 0.0000 -82.3540 1.6261 29.6937 10.9393 -18.1951 -1.7569 -0.0000 0.0000 -6.3638 7.6948 -11.8937 -1.5951 -7.1250 0.0000 -0.0000 -13.5587 18.1658 8.9089 0.0000 -0.0000 0.0000 81.5478 -8.5147 27.5612 -14.9041 24.0123 -3.1868 0.0000 -0.0000 -2.5177 -4.1388 -38.8147 2.5969 7.1250 -0.0000 -0.0000 39.2294 -64.6683 -20.1004
5.9295 18.0481 -25.3062 -136.7720 88.7043 -134.8520 0.0000 0.0000 0.0000 -8.6352 -2.2258 7.6331 0.0076 0.5620 1.5442 0.9911 -5.3995 -17.7846 2.7961 10.3573 30.1419 0.0000 0.0000 0.0000 12.6957 9.6957 10.7760 -0.0077 0.5675 -1.5595 -1.2244 -24.0089 -40.1865 -0.4640 -4.3692 12.1177 -2.5630 -2.0764 -6.1493 0.7578 -2.6027 1.5228 1.9481 -1.3798 5.1831 -13.3254 -16.3136 7.5060 18.1866 -23.3140 3.5984 6.6798 -11.7779 3.5992 -0.0000 0.0000 0.0000 -82.3643 1.7172 30.3139 11.0672 -18.3912 -1.7971 -0.0000 0.0000 -7.6737 8.2725 -11.2222 -1.6208 -7.1250 0.0000 -0.0000 -13.1994 18.8000 8.4685 -0.0000 0.0000 0.0000 81.5603 -8.2297 26.0221 -14.8751 23.9718 -3.1750 0.0000 -0.0000 -4.1529 -11.8046 -36.1112 7.0218 7.1250 -0.0000 -0.0000 27.8266 -64.5942 -13.6963
5.9267 18.0388 -25.3142 -145.5710 88.4669 -143.3630 0.0000 0.0000 0.0000 -8.6331 -2.3842 7.1560 0.0093 0.6233 1.7128 0.9729 -5.5021 -17.6128 2.7586 10.2936 29.9329 0.0000 0.0000 0.0000 12.5562 9.5916 10.4770 -0.0052 0.4653 -1.2784 -1.4944 -23.3415 -40.7291 -0.5266 -4.6506 12.9146 -2.4391 -2.1980 -6.3351 0.7369 -2.7701 1.4061 1.8341 -1.4568 5.1685 -13.4881 -16.0568 8.5540 19.1014 -22.8832 1.6945 7.1831 -11.6784 2.9301 -0.0000 0.0000 0.0000 -82.4088 1.8710 30.7562 11.1908 -18.5802 -1.8363 -0.0000 0.0000 -8.6419 8.8338 -10.8027 -1.6685 -7.1250 0.0000 -0.0000 -12.8339 19.1892 8.1072 -0.0000 0.0000 0.0000 81.5144 -8.0737 25.3405 -14.7377 23.7794 -3.1194 0.0000 -0.0000 -4.6417 -13.7998 -34.3557 7.8915 7.1250 -0.0000 -0.0000 23.7500 -63.5870 -11.0160
5.9307 18.0539 -25.3012 -128.9940 88.6196 -127.1170 0.0000 0.0000 0.0000 -8.3568 -2.0256 7.6661 0.0070 0.5397 1.4830 0.9806 -5.4634 -17.6855 2.8139 10.3876 30.2411 0.0000 0.0000 0.0000 12.8340 9.1466 10.5044 -0.0055 0.4781 -1.3136 -0.8354 -24.5383 -38.9277 -0.2525 -3.2334 8.9291 -2.3828 -2.0606 -6.0190 0.8144 -2.6019 1.4965 1.9110 -1.3735 5.0757 -13.6890 -15.8160 9.6160 20.1246 -22.4593 -0.2624 7.7299 -11.5903 2.2647 0.0000 0.0000 0.0000 -82.4064 1.9570 30.9659 11.2467 -18.6654 -1.8541 -0.0000 0.0000 -9.0461 8.8893 -10.8095 -1.6802 -7.1250 0.0000 -0.0000 -12.7949 19.1802 8.0840 0.0000 0.0000 0.0000 81.5412 -8.1280 25.5311 -14.6998 23.7263 -3.1042 0.0000 -0.0000 -4.0644 -15.2101 -33.9645 8.6370 7.1250 -0.0000 -0.0000 21.8140 -63.6063 -10.0826
5.9347 18.0629 -25.2984 -113.3440 88.3393 -111.4960 0.0000 0.0000 0.0000 -7.8359 -2.0793 7.9016 0.0055 0.4790 1.3162 1.0096 -5.3547 -17.9566 2.8626 10.4692 30.5099 0.0000 0.0000 0.0000 13.5834 9.9865 10.9085 -0.0058 0.4926 -1.3536 -1.2403 -23.9754 -40.2242 -0.4045 -4.0830 11.3102 -1.9522 -1.9530 -6.0171 0.9492 -2.4982 1.5083 1.8208 -1.3111 5.0681 -13.7734 -15.3720 11.6895 21.8237 -21.5615 -4.0705 8.7021 -11.3943 0.8898 -0.0000 0.0000 0.0000 -82.4098 2.0066 31.1694 11.2785 -18.7139 -1.8643 -0.0000 0.0000 -9.2770 8.6621 -10.8975 -1.6497 -7.1250 0.0000 -0.0000 -12.9479 19.1029 8.2087 -0.0000 0.0000 0.0000 81.5952 -8.0937 24.8486 -14.7107 23.7416 -3.1085 0.0000 -0.0000 -3.7945 -18.9137 -32.5818 10.4543 7.1250 -0.0000 -0.0000 16.4093 -63.2914 -7.3846
5.9343 18.0642 -25.2962 -110.4710 88.0946 -108.5100 0.0000 0.0000 0.0000 -7.5013 -2.1370 7.8049 0.0054 0.4758 1.3073 1.0109 -5.3895 -17.9665 2.9147 10.5557 30.7956 0.0000 0.0000 0.0000 14.0603 10.5100 11.0381 -0.0061 0.5061 -1.3906 -1.5467 -23.5353 -41.1636 -0.5852 -4.8980 13.6178 -1.7425 -1.9284 -6.0932 1.0518 -2.4853 1.4721 1.8093 -1.2994 5.0681 -13.7001 -15.4006 11.6079 21.6680 -21.5927 -4.0065 8.6325 -11.4000 0.9000 0.0000 -0.0000 0.0000 -82.4596 2.0291 31.2757 11.2901 -18.7315 -1.8680 -0.0000 0.0000 -9.2901 8.6560 -10.9486 -1.6562 -7.1250 0.0000 -0.0000 -12.9492 19.0531 8.2243 0.0000 -0.0000 0.0000 81.6289 -7.9355 23.5762 -14.7493 23.7958 -3.1241 0.0000 -0.0000 -4.1260 -22.8517 -31.8477 12.5369 7.1250 -0.0000 -0.0000 11.2686 -63.6222 -5.1215
5.9317 18.0635 -25.2920 -112.4590 88.0572 -110.4170 0.0000 0.0000 0.0000 -7.4463 -2.1191 7.6425 0.0059 0.4948 1.3595 0.9896 -5.4164 -17.7698 2.9373 10.5929 30.9188 0.0000 0.0000 0.0000 14.1766 10.8788 11.1698 -0.0065 0.5195 -1.4276 -1.9432 -22.7173 -42.1149 -0.8589 -5.9099 16.5233 -1.7849 -1.9272 -6.1086 1.0665 -2.4809 1.4552 1.8486 -1.2985 5.0615 -13.8429 -15.4519 11.7131 21.9359 -21.6894 -4.0093 8.7304 -11.4600 0.9483 0.0000 -0.0000 0.0000 -82.4658 1.9907 31.3742 11.2880 -18.7283 -1.8673 -0.0000 0.0000 -9.1488 8.7195 -10.9082 -1.6624 -7.1250 0.0000 -0.0000 -12.9074 19.0901 8.1855 0.0000 -0.0000 0.0000 81.6359 -7.9784 23.4963 -14.7367 23.7780 -3.1190 0.0000 -0.0000 -3.9712 -24.8778 -32.9583 14.1588 7.1250 -0.0000 -0.0000 9.6597 -65.2890 -4.7573
5.9297 18.0631 -25.2882 -113.4130 88.0177 -111.3210 0.0000 0.0000 0.0000 -7.3236 -1.9086 7.4413 0.0065 0.5218 1.4340 0.9658 -5.3959 -17.5507 2.7691 10.3116 29.9916 0.0000 0.0000 0.0000 14.2205 10.8495 11.0908 -0.0061 0.5037 -1.3841 -1.8795 -22.9140 -42.0244 -0.7915 -5.6792 15.8563 -1.8008 -1.9425 -6.0926 1.0945 -2.5015 1.4419 1.8851 -1.3094 5.0416 -13.7307 -15.4140 11.4239 21.6517 -21.6231 -3.8393 8.6019 -11.4003 0.9845 -0.0000 -0.0000 0.0000 -82.4775 1.9929 31.4277 11.3083 -18.7592 -1.8739 -0.0000 0.0000 -9.0363 8.6121 -10.9648 -1.6501 -7.1250 0.0000 -0.0000 -12.9787 19.0388 8.2483 -0.0000 -0.0000 0.0000 81.4620 -8.1261 24.4269 -14.7290 23.7672 -3.1159 0.0000 -0.0000 -3.7852 -25.6082 -33.9396 14.9813 7.1250 -0.0000 -0.0000 9.5313 -66.4811 -4.9553
5.9290 18.0631 -25.2865 -114.5120 87.9990 -112.3960 0.0000 0.0000 0.0000 -7.2525 -1.6961 7.2957 0.0069 0.5375 1.4770 0.9428 -5.5544 -17.3296 2.7955 10.3565 30.1390 0.0000 0.0000 0.0000 14.2306 10.7578 11.0046 -0.0058 0.4917 -1.3512 -1.7075 -23.3911 -41.7345 -0.6488 -5.1527 14.3445 -1.8186 -1.9510 -6.0695 1.0971 -2.5119 1.4350 1.8976 -1.3149 5.0227 -13.7258 -15.4112 11.4017 21.7019 -21.6209 -3.7969 8.6123 -11.3981 1.0053 0.0000 -0.0000 0.0000 -82.5004 2.0039 31.4049 11.3330 -18.7969 -1.8818 -0.0000 0.0000 -9.1143 8.3861 -11.1695 -1.6357 -7.1250 0.0000 -0.0000 -13.1238 18.8470 8.4031 0.0000 -0.0000 0.0000 81.3518 -8.4630 26.6547 -14.5990 23.5845 -3.0637 0.0000 -0.0000 -1.9617 -24.2799 -35.1789 14.5683 7.1250 -0.0000 -0.0000 12.3283 -67.3118 -6.6602
5.9288 18.0627 -25.2865 -117.2020 88.0263 -115.0770 0.0000 0.0000 0.0000 -7.3342 -1.6697 7.2548 0.0069 0.5349 1.4698 0.9312 -5.6261 -17.2188 2.9302 10.5813 30.8803 0.0000 0.0000 0.0000 14.1558 10.6637 10.9761 -0.0060 0.5003 -1.3748 -1.5966 -23.7043 -41.5576 -0.5692 -4.8317 13.4293 -1.8387 -1.9371 -6.0509 1.0219 -2.4886 1.4391 1.8338 -1.3029 5.0126 -13.6132 -15.4660 11.3877 21.7509 -21.6858 -3.7094 8.6009 -11.4287 1.0378 -0.0000 0.0000 0.0000 -82.4573 2.0030 31.4785 11.3629 -18.8424 -1.8915 -0.0000 0.0000 -9.2852 8.2087 -11.2342 -1.6098 -7.1250 0.0000 -0.0000 -13.2428 18.7908 8.5007 -0.0000 0.0000 0.0000 81.4589 -8.6471 27.8107 -14.5476 23.5121 -3.0432 0.0000 -0.0000 -0.8068 -8.4302 -39.8973 5.4303 7.1250 -0.0000 -0.0000 36.4727 -66.7364 -20.2043
5.9281 18.0622 -25.2857 -119.7840 88.0380 -117.6560 0.0000 0.0000 0.0000 -7.3915 -1.6502 7.2083 0.0069 0.5372 1.4762 0.9259 -5.4625 -17.1740 2.7707 10.3143 30.0005 0.0000 0.0000 0.0000 14.1099 10.6078 10.9825 -0.0060 0.5005 -1.3752 -1.5667 -23.8208 -41.5433 -0.5526 -4.7620 13.2308 -1.8513 -1.9296 -6.0250 0.9602 -2.4753 1.4383 1.7791 -1.2956 4.9942 -13.5446 -15.5076 11.4099 21.8071 -21.7369 -3.6697 8.6043 -11.4557 1.0540 -0.0000 0.0000 0.0000 -82.3920 2.0442 31.6470 11.4148 -18.9212 -1.9082 -0.0000 0.0000 -9.3871 8.1812 -11.2433 -1.6056 -7.1250 0.0000 -0.0000 -13.2613 18.7831 8.5156 -0.0000 0.0000 0.0000 81.4657 -8.6115 28.0433 -14.5346 23.4939 -3.0380 0.0000 -0.0000 -1.1127 -8.6770 -40.3216 5.6397 7.1250 -0.0000 -0.0000 36.8757 -67.1384 -20.7821
5.9278 18.0621 -25.2843 -121.3310 88.0370 -119.1810 0.0000 0.0000 0.0000 -7.4104 -1.6999 7.1804 0.0069 0.5360 1.4729 0.9200 -5.4597 -17.1175 2.7357 10.2544 29.8046 0.0000 0.0000 0.0000 13.9657 10.0756 10.6818 -0.0054 0.4738 -1.3019 -1.1999 -24.4592 -40.5597 -0.3474 -3.7871 10.4784 -1.8796 -1.9287 -6.0247 0.9463 -2.4713 1.4320 1.7810 -1.2942 4.9879 -13.5138 -15.5503 11.4215 21.7894 -21.7898 -3.6836 8.5916 -11.4827 1.0521 -0.0000 -0.0000 0.0000 -82.4106 2.0539 31.5665 11.4306 -18.9453 -1.9134 -0.0000 0.0000 -9.1573 8.2284 -11.4170 -1.6396 -7.1250 0.0000 -0.0000 -13.2185 18.6104 8.5387 -0.0000 -0.0000 0.0000 81.3687 -8.5388 28.2777 -14.4882 23.4283 -3.0195 0.0000 -0.0000 -1.2990 -8.4279 -40.3866 5.4837 7.1250 -0.0000 -0.0000 37.2345 -67.1133 -20.9864
5.9280 18.0624 -25.2839 -121.3020 88.0006 -119.1190 0.0000 0.0000 0.0000 -7.3794 -1.8152 7.2006 0.0066 0.5246 1.4415 0.9203 -5.5271 -17.1189 2.8365 10.4256 30.3661 0.0000 0.0000 0.0000 14.1850 10.9990 11.1424 -0.0065 0.5190 -1.4260 -2.0616 -22.7288 -42.6380 -0.9241 -6.1244 17.1458 -1.8594 -1.9371 -6.0434 0.9691 -2.4847 1.4209 1.7915 -1.3004 4.9876 -13.4767 -15.5481 11.3993 21.6757 -21.7805 -3.6872 8.5523 -11.4745 1.0350 -0.0000 0.0000 0.0000 -82.5278 2.0376 31.2356 11.4057 -18.9074 -1.9053 -0.0000 0.0000 -8.7086 8.2684 -11.6722 -1.6840 -7.1250 0.0000 -0.0000 -13.1765 18.3580 8.5859 -0.0000 0.0000 0.0000 81.3314 -8.4870 28.2197 -14.4570 23.3842 -3.0071 0.0000 -0.0000 -1.1311 -8.2103 -40.1205 5.3119 7.1250 -0.0000 -0.0000 37.0419 -66.8434 -20.6439
